<svg width="25" height="24" viewBox="0 0 25 24" fill="none" xmlns="http://www.w3.org/2000/svg">
<g clip-path="url(#clip0_696_8907)">
<path fill-rule="evenodd" clip-rule="evenodd" d="M12.0259 8C9.81674 8 8.02588 9.79086 8.02588 12C8.02588 14.2091 9.81674 16 12.0259 16C14.235 16 16.0259 14.2091 16.0259 12C16.0259 9.79086 14.235 8 12.0259 8ZM6.02588 12C6.02588 8.68629 8.71217 6 12.0259 6C15.3396 6 18.0259 8.68629 18.0259 12C18.0259 15.3137 15.3396 18 12.0259 18C8.71217 18 6.02588 15.3137 6.02588 12Z" fill="#FFEDCE"/>
<path fill-rule="evenodd" clip-rule="evenodd" d="M12.0259 0C12.5782 0 13.0259 0.447715 13.0259 1V3C13.0259 3.55228 12.5782 4 12.0259 4C11.4736 4 11.0259 3.55228 11.0259 3V1C11.0259 0.447715 11.4736 0 12.0259 0Z" fill="#FFEDCE"/>
<path fill-rule="evenodd" clip-rule="evenodd" d="M12.0259 20C12.5782 20 13.0259 20.4477 13.0259 21V23C13.0259 23.5523 12.5782 24 12.0259 24C11.4736 24 11.0259 23.5523 11.0259 23V21C11.0259 20.4477 11.4736 20 12.0259 20Z" fill="#FFEDCE"/>
<path fill-rule="evenodd" clip-rule="evenodd" d="M3.53874 3.51286C3.92927 3.12234 4.56243 3.12234 4.95296 3.51286L6.37296 4.93286C6.76348 5.32339 6.76348 5.95655 6.37296 6.34708C5.98243 6.7376 5.34927 6.7376 4.95874 6.34708L3.53874 4.92708C3.14822 4.53655 3.14822 3.90339 3.53874 3.51286Z" fill="#FFEDCE"/>
<path fill-rule="evenodd" clip-rule="evenodd" d="M17.6788 17.6529C18.0693 17.2624 18.7024 17.2624 19.093 17.6529L20.513 19.0729C20.9035 19.4634 20.9035 20.0966 20.513 20.4871C20.1224 20.8776 19.4893 20.8776 19.0988 20.4871L17.6788 19.0671C17.2882 18.6766 17.2882 18.0434 17.6788 17.6529Z" fill="#FFEDCE"/>
<path fill-rule="evenodd" clip-rule="evenodd" d="M0.0258789 12C0.0258789 11.4477 0.473594 11 1.02588 11H3.02588C3.57816 11 4.02588 11.4477 4.02588 12C4.02588 12.5523 3.57816 13 3.02588 13H1.02588C0.473594 13 0.0258789 12.5523 0.0258789 12Z" fill="#FFEDCE"/>
<path fill-rule="evenodd" clip-rule="evenodd" d="M20.0259 12C20.0259 11.4477 20.4736 11 21.0259 11H23.0259C23.5782 11 24.0259 11.4477 24.0259 12C24.0259 12.5523 23.5782 13 23.0259 13H21.0259C20.4736 13 20.0259 12.5523 20.0259 12Z" fill="#FFEDCE"/>
<path fill-rule="evenodd" clip-rule="evenodd" d="M6.37296 17.6529C6.76348 18.0434 6.76348 18.6766 6.37296 19.0671L4.95296 20.4871C4.56243 20.8776 3.92927 20.8776 3.53874 20.4871C3.14822 20.0966 3.14822 19.4634 3.53874 19.0729L4.95874 17.6529C5.34927 17.2624 5.98243 17.2624 6.37296 17.6529Z" fill="#FFEDCE"/>
<path fill-rule="evenodd" clip-rule="evenodd" d="M20.513 3.51286C20.9035 3.90339 20.9035 4.53655 20.513 4.92708L19.093 6.34708C18.7024 6.7376 18.0693 6.7376 17.6788 6.34708C17.2882 5.95655 17.2882 5.32339 17.6788 4.93286L19.0988 3.51286C19.4893 3.12234 20.1224 3.12234 20.513 3.51286Z" fill="#FFEDCE"/>
</g>
<defs>
<clipPath id="clip0_696_8907">
<rect width="24" height="24" fill="white" transform="translate(0.0258789)"/>
</clipPath>
</defs>
</svg>
