<svg width="27" height="10" viewBox="0 0 27 10" fill="none" xmlns="http://www.w3.org/2000/svg">
<path d="M22 1L22 2H22V1ZM1 4C0.447715 4 0 4.44771 0 5C0 5.55228 0.447715 6 1 6V4ZM27 0H22V2H27V0ZM27 8H22V10H27V8ZM6 4H1V6H6V4ZM22 0C18.575 -7.54595e-05 15.6704 1.06667 13.0971 2.06802C10.4631 3.09298 8.27064 4 6 4V6C8.72936 6 11.3166 4.90694 13.8224 3.93188C16.3889 2.93319 18.9844 1.99993 22 2L22 0ZM22 8C18.9844 8 16.3889 7.06674 13.8224 6.06807C11.3166 5.09301 8.72936 4 6 4V6C8.27064 6 10.4631 6.90699 13.0971 7.93193C15.6704 8.93326 18.5749 10 22 10V8Z" fill="#FFB230" fill-opacity="0.5"/>
</svg>
