<svg width="40" height="40" viewBox="0 0 40 40" fill="none" xmlns="http://www.w3.org/2000/svg">
<path d="M21 39.9754C31.5811 39.4544 40 30.7104 40 20C40 16.565 39.134 13.3322 37.6085 10.5081L33 13.5392V27.5743L21 34.5743V39.9754Z" fill="black"/>
<path d="M19 39.9754C8.41889 39.4544 0 30.7104 0 20C0 16.5651 0.86591 13.3325 2.39135 10.5084L7 13.5392L7 27.5743L19 34.5743V39.9754Z" fill="black"/>
<path d="M3.42948 8.79741L8.03156 11.8239L20 4.84226L31.9684 11.8238L36.5703 8.79713C32.9744 3.48871 26.8946 0 20 0C13.1053 0 7.0254 3.48884 3.42948 8.79741Z" fill="black"/>
<path d="M9 13.5743L9 16.971C11.5447 14.1538 15.062 12.3037 19 12.0341V7.74101L9 13.5743Z" fill="black"/>
<path d="M21 7.74101V12.0341C24.938 12.3037 28.4553 14.1538 31 16.971V13.5743L21 7.74101Z" fill="black"/>
<path fill-rule="evenodd" clip-rule="evenodd" d="M30.8201 20C28.4273 16.3574 24.4623 14 20 14C15.5377 14 11.5727 16.3574 9.17987 20C11.5727 23.6426 15.5377 26 20 26C24.4623 26 28.4273 23.6426 30.8201 20ZM19.8743 20C21.5311 20 22.8743 18.6569 22.8743 17C22.8743 16.7414 22.8415 16.4905 22.78 16.2511C23.4583 16.9678 23.8743 17.9354 23.8743 19C23.8743 21.2092 22.0834 23 19.8743 23C17.6651 23 15.8743 21.2092 15.8743 19C15.8743 17.9354 16.2902 16.9678 16.9685 16.2511C16.907 16.4905 16.8743 16.7414 16.8743 17C16.8743 18.6569 18.2174 20 19.8743 20Z" fill="black"/>
<path d="M9 23.029C11.5447 25.8462 15.062 27.6963 19 27.9659L19 32.2589L9 26.4256L9 23.029Z" fill="black"/>
<path d="M21 32.2589L31 26.4256V23.029C28.4553 25.8462 24.938 27.6963 21 27.9659L21 32.2589Z" fill="black"/>
</svg>
