<svg width="40" height="40" viewBox="0 0 40 40" fill="none" xmlns="http://www.w3.org/2000/svg">
<path d="M22.8743 17C22.8743 18.6569 21.5311 20 19.8743 20C18.2174 20 16.8743 18.6569 16.8743 17C16.8743 16.7414 16.907 16.4905 16.9685 16.2511C16.2902 16.9678 15.8743 17.9354 15.8743 19C15.8743 21.2092 17.6651 23 19.8743 23C22.0834 23 23.8743 21.2092 23.8743 19C23.8743 17.9354 23.4583 16.9678 22.78 16.2511C22.8416 16.4905 22.8743 16.7414 22.8743 17Z" fill="black"/>
<path fill-rule="evenodd" clip-rule="evenodd" d="M20 0C12.732 0 6.37063 3.87741 2.86993 9.67171C1.04811 12.6871 0 16.2227 0 20C0 31.0457 8.95431 40 20 40C31.0457 40 40 31.0457 40 20C40 16.2227 38.9519 12.6872 37.1301 9.67174C33.6294 3.87742 27.268 0 20 0ZM8.03159 11.8239L5.1009 9.89631C8.34043 5.12875 13.8053 2 20 2C26.1947 2 31.6596 5.12876 34.8991 9.89633L31.9684 11.8239L20 4.84228L8.03159 11.8239ZM33 13.5392L35.9304 11.6119C37.2518 14.1159 38 16.9694 38 20C38 29.6056 30.476 37.4538 21 37.9727L21 34.5744L33 27.5744V13.5392ZM19 34.5744L19 37.9727C9.52401 37.4538 2 29.6056 2 20C2 16.9694 2.74822 14.1159 4.06963 11.6118L7 13.5392L7 27.5744L19 34.5744ZM9 16.971L9 13.5744L19 7.74102V12.0341C15.062 12.3037 11.5447 14.1538 9 16.971ZM21 12.0341V7.74102L31 13.5744V16.971C28.4553 14.1538 24.938 12.3037 21 12.0341ZM20 14C24.4623 14 28.4273 16.3574 30.8201 20C28.4273 23.6426 24.4623 26 20 26C15.5377 26 11.5727 23.6426 9.17987 20C11.5727 16.3574 15.5377 14 20 14ZM19 27.9659C15.062 27.6963 11.5447 25.8462 9 23.029L9 26.4256L19 32.2589L19 27.9659ZM31 26.4256L21 32.2589L21 27.9659C24.938 27.6963 28.4553 25.8462 31 23.029V26.4256Z" fill="black"/>
</svg>
