<svg width="25" height="24" viewBox="0 0 25 24" fill="none" xmlns="http://www.w3.org/2000/svg">
<path fill-rule="evenodd" clip-rule="evenodd" d="M11.8516 2.57221C12.0451 2.9156 12.0189 3.34063 11.7846 3.6576C10.9304 4.81325 10.5193 6.23712 10.6262 7.67024C10.733 9.10335 11.3507 10.4505 12.3669 11.4667C13.3831 12.4829 14.7302 13.1006 16.1634 13.2074C17.5965 13.3143 19.0203 12.9032 20.176 12.049C20.493 11.8147 20.918 11.7885 21.2614 11.982C21.6048 12.1755 21.8024 12.5527 21.7662 12.9452C21.5914 14.8365 20.8816 16.639 19.7198 18.1416C18.558 19.6443 16.9923 20.785 15.2058 21.4303C13.4194 22.0755 11.4861 22.1987 9.63228 21.7853C7.77841 21.3719 6.0806 20.4391 4.73753 19.0961C3.39445 17.753 2.46165 16.0552 2.04829 14.2013C1.63492 12.3474 1.75807 10.4142 2.40334 8.62776C3.04862 6.84133 4.18931 5.27562 5.69196 4.11382C7.19461 2.95203 8.99705 2.24221 10.8884 2.06743C11.2809 2.03116 11.6581 2.22883 11.8516 2.57221ZM9.0868 4.50225C8.30918 4.7836 7.57601 5.18521 6.91529 5.69606C5.71317 6.62549 4.80061 7.87806 4.28439 9.30721C3.76818 10.7364 3.66965 12.283 4.00035 13.7661C4.33104 15.2492 5.07728 16.6074 6.15174 17.6819C7.2262 18.7563 8.58445 19.5026 10.0675 19.8333C11.5506 20.1639 13.0972 20.0654 14.5264 19.5492C15.9555 19.033 17.2081 18.1204 18.1375 16.9183C18.6484 16.2576 19.05 15.5244 19.3313 14.7468C18.2782 15.1278 17.1486 15.2865 16.0146 15.2019C14.1038 15.0594 12.3076 14.2358 10.9527 12.8809C9.5978 11.526 8.7742 9.72979 8.63171 7.81897C8.54715 6.685 8.70579 5.55537 9.0868 4.50225Z" fill="#FFEDCE"/>
</svg>
